<svg width="128" height="34" viewBox="0 0 128 34" fill="none" xmlns="http://www.w3.org/2000/svg">
<g id="Logo header">
<g id="Logo">
<g id="Logo1">
<g id="Logotype">
<path id="Vector" d="M37.3241 5.23151V20.1082L28.3981 12.3036V20.1589H25.2537V5.3104L34.1346 13.1601V5.23151H37.3241Z" fill="#38369C"/>
<path id="Vector_2" d="M51.3555 17.4033V20.1589H40.4065V5.23151H51.3555V7.98144H43.5509V11.3231H49.3269V14.0166H43.5509V17.3977H51.3555V17.4033Z" fill="#38369C"/>
<path id="Vector_3" d="M59.9096 20.3674C58.9055 20.3746 57.9111 20.1711 56.9906 19.7701C56.0973 19.3827 55.2863 18.828 54.6013 18.1359C53.1848 16.6971 52.3948 14.7565 52.4036 12.7375C52.3963 10.7204 53.1862 8.78207 54.6013 7.34469C55.2863 6.6526 56.0973 6.0979 56.9906 5.71051C57.9133 5.31648 58.9063 5.11334 59.9096 5.11334C60.9129 5.11334 61.9059 5.31648 62.8286 5.71051C63.7211 6.09935 64.5319 6.65387 65.2179 7.34469C66.633 8.78207 67.4229 10.7204 67.4156 12.7375C67.4244 14.7565 66.6344 16.6971 65.2179 18.1359C64.5319 18.8267 63.7211 19.3813 62.8286 19.7701C61.9081 20.1711 60.9137 20.3746 59.9096 20.3674ZM59.9096 8.25757C59.3276 8.25177 58.7511 8.37091 58.2191 8.60695C57.7061 8.83633 57.2429 9.16365 56.8554 9.57055C56.4607 9.98793 56.1473 10.4752 55.9312 11.0075C55.4803 12.1226 55.4803 13.3693 55.9312 14.4844C56.1489 15.0108 56.4622 15.4922 56.8554 15.9044C57.2411 16.3148 57.7047 16.6443 58.2191 16.8737C58.7469 17.1042 59.3167 17.2232 59.8927 17.2232C60.4687 17.2232 61.0385 17.1042 61.5663 16.8737C62.0799 16.6429 62.5432 16.3136 62.93 15.9044C63.3213 15.4907 63.6344 15.0096 63.8542 14.4844C64.305 13.3693 64.305 12.1226 63.8542 11.0075C63.6359 10.4764 63.3228 9.98944 62.93 9.57055C62.5415 9.16485 62.0785 8.8377 61.5663 8.60695C61.0447 8.3756 60.4802 8.25656 59.9096 8.25757Z" fill="#38369C"/>
<path id="Vector_4" d="M75.5866 12.7206L81.7852 20.1589H78.0209L73.7213 14.9577L72.2844 16.6933V20.1589H69.3879V5.23151H72.2731V12.1796L78.0378 5.23151H81.7852L75.5866 12.7206Z" fill="#38369C"/>
<path id="Vector_5" d="M92.8805 20.159L89.9672 15.5946C89.6573 15.5946 89.3191 15.5946 88.9472 15.5946H86.7721V20.159H83.6277V5.23161H90.6772C91.3401 5.22721 91.9969 5.35727 92.6081 5.61394C93.2192 5.87061 93.772 6.24855 94.233 6.72492C94.6903 7.20217 95.0553 7.76008 95.3093 8.37037C95.5704 9.01067 95.7026 9.69624 95.6981 10.3877C95.7276 11.2713 95.49 12.1433 95.0162 12.8897C94.5389 13.6006 93.9215 14.2066 93.2017 14.6704L96.8307 20.159H92.8805ZM86.7721 12.8334H88.4119H89.6742C89.9996 12.8393 90.3251 12.8261 90.649 12.7939C90.9172 12.7659 91.1767 12.6829 91.4113 12.5501C91.646 12.4172 91.8507 12.2374 92.0127 12.0219C92.3785 11.5361 92.5656 10.9391 92.5424 10.3314C92.5754 9.75003 92.386 9.17789 92.0127 8.73102C91.6582 8.33914 91.1738 8.08891 90.649 8.02663C90.418 8.02663 90.0855 7.98718 89.6572 7.98155C89.229 7.97591 88.7951 7.98155 88.3668 7.98155H86.7495L86.7721 12.8334Z" fill="#38369C"/>
<path id="Vector_6" d="M109.6 17.4033V20.1589H98.6284V5.23151H109.6V7.98144H101.773V11.3231H107.549V14.0166H101.773V17.3977H109.6V17.4033Z" fill="#38369C"/>
<path id="Vector_7" d="M118.013 5.16939C118.94 5.27004 119.84 5.54134 120.667 5.96957C121.474 6.38051 122.198 6.93638 122.803 7.60939C123.414 8.28916 123.9 9.07125 124.24 9.91978C124.592 10.7976 124.772 11.7351 124.77 12.681C124.777 13.6148 124.603 14.5411 124.257 15.4084C123.93 16.2389 123.455 17.0028 122.854 17.6624C122.246 18.3283 121.524 18.8816 120.724 19.2966C119.876 19.7358 118.959 20.0274 118.013 20.1588C117.466 20.2298 116.914 20.2694 116.362 20.2771C115.725 20.2771 115.106 20.2771 114.508 20.2771C113.815 20.2771 113.105 20.2208 112.378 20.1813V5.19193C113.133 5.15248 113.871 5.12431 114.587 5.11304C115.196 5.11304 115.821 5.11304 116.452 5.11304C117.083 5.11304 117.602 5.12994 118.013 5.16939ZM118.013 17.1215C118.503 17.0421 118.973 16.8658 119.394 16.603C119.815 16.3411 120.184 16.0028 120.481 15.6056C120.785 15.1953 121.024 14.7412 121.191 14.2588C121.363 13.7544 121.451 13.2251 121.451 12.6923C121.453 12.1675 121.361 11.6466 121.18 11.1539C121.007 10.674 120.758 10.225 120.442 9.82399C120.124 9.43741 119.743 9.10774 119.315 8.84911C118.908 8.59603 118.457 8.42206 117.985 8.33632C117.754 8.29452 117.521 8.2719 117.286 8.2687C117.01 8.2687 116.723 8.2687 116.469 8.2687C116.216 8.2687 115.849 8.30251 115.528 8.32505V17.1215C115.81 17.1496 116.092 17.1665 116.39 17.1834C116.689 17.2003 116.909 17.1834 117.191 17.1834C117.462 17.1798 117.733 17.1591 118.002 17.1215H118.013Z" fill="#38369C"/>
</g>
<g id="Tagline">
<path id="Vector_8" d="M25.6089 26.4365H26.9219C28.3588 26.4365 29.1759 27.0958 29.1759 28.3017C29.1759 29.5077 28.3701 30.1726 26.9219 30.1726H26.4203V31.649H25.6089V26.4365ZM26.8881 29.4569C27.9136 29.4569 28.3306 29.0963 28.3306 28.3299C28.3306 27.5635 27.908 27.2029 26.8881 27.2029H26.4203V29.4569H26.8881Z" fill="#FF9700"/>
<path id="Vector_9" d="M33.2781 29.0453C33.2748 28.5132 33.4295 27.9921 33.7225 27.548C34.0156 27.1038 34.4339 26.7567 34.9244 26.5505C35.4149 26.3443 35.9556 26.2883 36.478 26.3897C37.0003 26.491 37.4809 26.7451 37.8587 27.1198C38.2365 27.4944 38.4947 27.9728 38.6004 28.4943C38.7061 29.0158 38.6547 29.5569 38.4526 30.0492C38.2505 30.5414 37.9069 30.9626 37.4653 31.2594C37.0236 31.5562 36.5038 31.7152 35.9717 31.7163C35.6176 31.7247 35.2654 31.6615 34.9363 31.5306C34.6072 31.3996 34.308 31.2035 34.0564 30.9541C33.8049 30.7047 33.6064 30.4071 33.4726 30.0791C33.3389 29.7511 33.2727 29.3995 33.2781 29.0453ZM37.8257 29.0453C37.8091 28.6813 37.686 28.3302 37.4716 28.0356C37.2572 27.741 36.961 27.5159 36.6198 27.3882C36.2785 27.2605 35.9073 27.2359 35.5522 27.3173C35.1971 27.3988 34.8737 27.5828 34.6222 27.8465C34.3708 28.1102 34.2024 28.4419 34.1378 28.8005C34.0733 29.1591 34.1155 29.5287 34.2593 29.8635C34.403 30.1983 34.642 30.4835 34.9464 30.6837C35.2508 30.8838 35.6074 30.9901 35.9717 30.9894C36.2239 30.9921 36.474 30.943 36.7064 30.8452C36.9388 30.7473 37.1487 30.6028 37.323 30.4205C37.4973 30.2383 37.6324 30.0222 37.7198 29.7857C37.8073 29.5491 37.8452 29.2971 37.8313 29.0453H37.8257Z" fill="#FF9700"/>
<path id="Vector_10" d="M42.3677 26.4364H43.2186L44.1427 29.2145C44.2385 29.5019 44.34 29.9584 44.34 29.9584C44.34 29.9584 44.4696 29.5132 44.5935 29.2145L45.8389 26.397L47.0899 29.2145C47.1864 29.4576 47.2692 29.706 47.3378 29.9584C47.3378 29.9584 47.4449 29.5019 47.5407 29.2145L48.4649 26.4364H49.2538L47.4505 31.7052H47.3491L46.0587 28.6116C45.9516 28.358 45.8389 27.9748 45.8389 27.9748C45.8389 27.9748 45.7206 28.358 45.6135 28.6116L44.2836 31.7165H44.1878L42.3677 26.4364Z" fill="#FF9700"/>
<path id="Vector_11" d="M53.4688 26.4365H56.7766V27.1522H54.2802V28.792H56.3539V29.4851H54.2802V30.939H56.8836V31.649H53.4688V26.4365Z" fill="#FF9700"/>
<path id="Vector_12" d="M65.1054 31.649H64.17L63.2515 30.1219H62.1245V31.649H61.3074V26.4365H62.626C64.0629 26.4365 64.88 27.0958 64.88 28.2905C64.8991 28.6091 64.8258 28.9264 64.6688 29.2043C64.5119 29.4822 64.278 29.7089 63.9953 29.857L65.1054 31.649ZM62.626 29.4288C63.6628 29.4288 64.0742 29.0625 64.0742 28.3017C64.0742 27.541 63.6459 27.1747 62.626 27.1747H62.1695V29.4288H62.626Z" fill="#FF9700"/>
<path id="Vector_13" d="M75.6374 27.1522H74.2681V26.4365H77.8407V27.1522H76.4714V31.6603H75.6656L75.6374 27.1522Z" fill="#FF9700"/>
<path id="Vector_14" d="M81.6895 29.0453C81.6862 28.5132 81.8408 27.9921 82.1339 27.548C82.427 27.1038 82.8452 26.7567 83.3358 26.5505C83.8263 26.3443 84.367 26.2883 84.8893 26.3897C85.4117 26.491 85.8922 26.7451 86.2701 27.1198C86.6479 27.4944 86.906 27.9728 87.0118 28.4943C87.1175 29.0158 87.0661 29.5569 86.864 30.0492C86.6619 30.5414 86.3183 30.9626 85.8766 31.2594C85.435 31.5562 84.9152 31.7152 84.3831 31.7163C84.029 31.7247 83.6768 31.6615 83.3477 31.5306C83.0186 31.3996 82.7193 31.2035 82.4678 30.9541C82.2163 30.7047 82.0177 30.4071 81.884 30.0791C81.7503 29.7511 81.6841 29.3995 81.6895 29.0453ZM86.237 29.0453C86.2205 28.6813 86.0974 28.3302 85.883 28.0356C85.6686 27.741 85.3724 27.5159 85.0312 27.3882C84.6899 27.2605 84.3187 27.2359 83.9636 27.3173C83.6084 27.3988 83.2851 27.5828 83.0336 27.8465C82.7822 28.1102 82.6137 28.4419 82.5492 28.8005C82.4847 29.1591 82.5269 29.5287 82.6706 29.8635C82.8144 30.1983 83.0533 30.4835 83.3578 30.6837C83.6622 30.8838 84.0187 30.9901 84.3831 30.9894C84.6348 30.9913 84.8842 30.9417 85.116 30.8435C85.3478 30.7453 85.557 30.6006 85.7307 30.4185C85.9044 30.2363 86.039 30.0205 86.126 29.7843C86.2131 29.5481 86.2509 29.2966 86.237 29.0453Z" fill="#FF9700"/>
<path id="Vector_15" d="M98.1552 29.7385L96.1772 26.4307H97.0732L98.251 28.6115C98.346 28.783 98.4514 28.9486 98.5665 29.1073C98.6863 28.9518 98.7919 28.7858 98.8821 28.6115L100.009 26.4645H100.843L98.9497 29.7272V31.6769H98.1383L98.1552 29.7385Z" fill="#FF9700"/>
<path id="Vector_16" d="M104.669 29.0454C104.669 27.4901 105.734 26.3687 107.064 26.3687C108.394 26.3687 109.454 27.4957 109.454 29.0454C109.454 30.595 108.389 31.7164 107.064 31.7164C105.74 31.7164 104.669 30.6007 104.669 29.0454ZM108.715 29.0454C108.715 27.9184 108.034 27.0956 107.064 27.0956C106.095 27.0956 105.408 27.9353 105.408 29.0454C105.408 30.1555 106.095 30.9895 107.064 30.9895C108.034 30.9895 108.715 30.1555 108.715 29.0454Z" fill="#FF9700"/>
<path id="Vector_17" d="M113.674 29.8176V26.4365H114.469V29.7725C114.49 30.0934 114.633 30.3942 114.868 30.614C115.103 30.8337 115.412 30.9559 115.734 30.9559C116.056 30.9559 116.365 30.8337 116.6 30.614C116.835 30.3942 116.978 30.0934 116.999 29.7725V26.4365H117.85V29.8176C117.85 31.0855 116.903 31.7166 115.776 31.7166C114.649 31.7166 113.674 31.0855 113.674 29.8176Z" fill="#FF9700"/>
</g>
<g id="Logomark">
<path id="Vector_18" d="M11.6449 10.8496L5.44069 3.54083L5.43506 5.8794L11.6449 13.2389V10.8496Z" fill="url(#paint0_linear_1_3402)"/>
<path id="Vector_19" d="M11.645 15.2058V13.2392L5.43508 5.8797L5.42944 7.80691L11.645 15.2058Z" fill="url(#paint1_linear_1_3402)"/>
<path id="Vector_20" d="M0.825721 2.97192V19.6575C1.61353 20.0853 2.53615 20.1923 3.40097 19.9561C4.75903 19.5955 5.57612 18.5643 5.57612 17.7021V1.39409C5.57612 0.830581 5.42961 0.582636 4.8999 0.469934C3.95629 0.390426 3.01621 0.659021 2.25704 1.22504C1.62991 1.58147 1.137 2.13377 0.853897 2.79723C0.8332 2.85307 0.823629 2.91241 0.825721 2.97192Z" fill="url(#paint2_linear_1_3402)"/>
<path id="Vector_21" d="M11.5266 7.19831V24.9038C12.3155 25.3283 13.2368 25.4351 14.1019 25.2025C15.4599 24.8418 16.277 23.8106 16.277 22.9484V5.72191C16.277 5.1584 16.1305 4.91046 15.6008 4.79775C14.6572 4.71825 13.7171 4.98684 12.9579 5.55286C12.2946 5.90651 11.785 6.49237 11.5266 7.19831Z" fill="url(#paint3_linear_1_3402)"/>
<path id="Vector_22" d="M12.9579 5.55279C12.2861 5.91734 11.7754 6.52056 11.5266 7.24332V24.9037C12.2899 25.3172 13.1798 25.4317 14.023 25.225V5.01746C13.6497 5.15703 13.2926 5.33652 12.9579 5.55279Z" fill="url(#paint4_linear_1_3402)"/>
<path id="Vector_23" d="M2.25678 1.22489C1.63333 1.57906 1.14262 2.12716 0.859272 2.78582C0.836325 2.84902 0.824875 2.91581 0.825461 2.98305V19.6573C1.57133 20.0611 2.43876 20.1793 3.26546 19.9898V0.712097C2.9125 0.847894 2.57448 1.01973 2.25678 1.22489Z" fill="url(#paint5_linear_1_3402)"/>
<path id="Vector_24" d="M16.3616 16.5412V19.1334C16.1523 19.4611 15.8709 19.7367 15.5389 19.9392C15.0291 20.2583 14.4368 20.4204 13.8356 20.4054C13.2344 20.3904 12.651 20.1988 12.1578 19.8547C11.1942 19.1503 9.34026 17.0371 5.39568 12.3431C1.82302 8.02656 0.859418 6.72485 0.639648 6.41492V4.62296C0.639648 3.81714 0.825607 3.81714 0.825607 3.81714V3.87349C0.825607 3.98619 2.51614 6.12753 5.18718 9.38463C7.85822 12.6417 9.69527 14.7098 10.7209 15.8537C11.7464 16.9977 12.6143 17.6795 13.7131 17.7809C14.1317 17.8244 14.5546 17.7674 14.9466 17.6145C15.3387 17.4616 15.6886 17.2173 15.9671 16.9019C16.0787 16.7639 16.1786 16.6169 16.2658 16.4623V16.3834C16.3052 16.3722 16.3616 16.4229 16.3616 16.5412Z" fill="url(#paint6_linear_1_3402)"/>
<path id="Vector_25" d="M5.19282 13.9603C7.23836 16.4679 8.23577 17.6344 10.5518 20.1589C11.7859 21.5169 12.5297 21.8494 13.8202 21.9283C14.2861 21.9507 14.7508 21.864 15.1773 21.6752C15.6038 21.4864 15.9804 21.2007 16.2771 20.8407C16.2771 20.8407 16.3616 20.79 16.3616 20.6041V19.1333C16.1523 19.4611 15.8709 19.7367 15.5389 19.9391C15.0296 20.2596 14.4371 20.4226 13.8356 20.4076C13.2341 20.3925 12.6504 20.2002 12.1578 19.8546C11.1942 19.1502 9.34026 17.037 5.39568 12.343C1.82302 8.02086 0.859418 6.72479 0.639648 6.41486V8.32516C0.640282 8.35728 0.650056 8.38855 0.667824 8.41532C0.870688 8.65763 2.08787 10.1847 5.19282 13.9603Z" fill="url(#paint7_linear_1_3402)"/>
</g>
</g>
</g>
</g>
<defs>
<linearGradient id="paint0_linear_1_3402" x1="-3.23737" y1="9.46333" x2="16.5137" y2="7.66573" gradientUnits="userSpaceOnUse">
<stop offset="0.19" stop-color="#FFEAA9"/>
<stop offset="0.44" stop-color="#FFD348"/>
<stop offset="0.68" stop-color="#FF9B1C"/>
<stop offset="1" stop-color="#FF4A00"/>
</linearGradient>
<linearGradient id="paint1_linear_1_3402" x1="1.37216" y1="-3.17028" x2="9.24441" y2="11.8867" gradientUnits="userSpaceOnUse">
<stop offset="0.19" stop-color="#FFEAA9"/>
<stop offset="0.44" stop-color="#FFD348"/>
<stop offset="0.68" stop-color="#FF9B1C"/>
<stop offset="1" stop-color="#FF4A00"/>
</linearGradient>
<linearGradient id="paint2_linear_1_3402" x1="2.14997" y1="10.2187" x2="5.61556" y2="10.3145" gradientUnits="userSpaceOnUse">
<stop offset="0.32" stop-color="#FFA200"/>
<stop offset="0.51" stop-color="#FF8E00"/>
<stop offset="0.88" stop-color="#FF5B00"/>
<stop offset="1" stop-color="#FF4A00"/>
</linearGradient>
<linearGradient id="paint3_linear_1_3402" x1="12.0732" y1="15.11" x2="16.694" y2="14.9691" gradientUnits="userSpaceOnUse">
<stop offset="0.43" stop-color="#FFA200"/>
<stop offset="0.55" stop-color="#FF9200"/>
<stop offset="0.77" stop-color="#FF6800"/>
<stop offset="0.91" stop-color="#FF4A00"/>
</linearGradient>
<linearGradient id="paint4_linear_1_3402" x1="8.4104" y1="8.84933" x2="16.2488" y2="19.8265" gradientUnits="userSpaceOnUse">
<stop offset="0.09" stop-color="#FFB816"/>
<stop offset="0.29" stop-color="#FFA200"/>
<stop offset="0.34" stop-color="#FF8D00"/>
<stop offset="0.44" stop-color="#FF7000"/>
<stop offset="0.54" stop-color="#FF5B00"/>
<stop offset="0.64" stop-color="#FF4E00"/>
<stop offset="0.73" stop-color="#FF4A00"/>
<stop offset="1" stop-color="#F03B00"/>
</linearGradient>
<linearGradient id="paint5_linear_1_3402" x1="2.04264" y1="23.9062" x2="2.04264" y2="0.937502" gradientUnits="userSpaceOnUse">
<stop stop-color="#FFA200"/>
<stop offset="0.02" stop-color="#FFA000"/>
<stop offset="0.31" stop-color="#FF7B00"/>
<stop offset="0.58" stop-color="#FF6000"/>
<stop offset="0.82" stop-color="#FF5000"/>
<stop offset="1" stop-color="#FF4A00"/>
</linearGradient>
<linearGradient id="paint6_linear_1_3402" x1="0.183204" y1="34.6186" x2="12.9411" y2="-0.606422" gradientUnits="userSpaceOnUse">
<stop offset="0.01" stop-color="#FFD348"/>
<stop offset="0.28" stop-color="#FF4A00"/>
<stop offset="0.57" stop-color="#FFD348"/>
<stop offset="0.68" stop-color="#FF9B1C"/>
<stop offset="1" stop-color="#FF4A00"/>
</linearGradient>
<linearGradient id="paint7_linear_1_3402" x1="-1.01707" y1="-0.786812" x2="16.2883" y2="25.6362" gradientUnits="userSpaceOnUse">
<stop stop-color="#FFEAA9"/>
<stop offset="0.15" stop-color="#FF4A00"/>
<stop offset="0.37" stop-color="#FFD348"/>
<stop offset="0.58" stop-color="#FF9B1C"/>
<stop offset="0.9" stop-color="#FF4A00"/>
</linearGradient>
</defs>
</svg>
